P2
50 50
255
255
255
255
255
255
255
255
255
255
255
255
255
255
255
255
255
255
255
255
255
255
255
255
255
255
255
255
255
255
255
255
255
255
255
255
255
255
255
255
255
255
255
255
255
255
255
255
255
255
255
255
255
255
255
255
255
255
255
255
255
255
255
255
255
255
255
255
255
255
255
255
255
255
255
255
255
255
255
255
255
255
255
255
255
255
255
255
255
255
255
255
255
255
255
255
255
255
255
255
255
255
255
255
255
255
255
255
255
255
255
255
255
255
255
255
255
255
255
255
255
255
255
255
255
255
255
255
255
255
255
255
255
255
255
255
255
255
255
255
255
255
255
255
255
255
255
255
255
255
255
255
255
255
255
255
255
255
255
255
255
255
255
255
255
255
255
255
255
255
255
255
255
255
255
255
255
255
255
255
255
255
255
255
255
255
255
255
255
255
255
255
255
255
255
255
255
255
255
255
255
255
255
255
255
255
255
255
255
255
255
255
255
255
255
255
255
255
255
255
255
255
255
255
255
255
255
255
255
255
255
255
255
255
255
255
255
255
255
255
255
255
255
255
255
255
255
255
255
255
255
255
255
255
255
255
255
255
255
255
255
255
255
255
255
255
255
255
255
255
255
255
255
255
255
255
255
255
255
255
255
255
255
255
255
255
255
255
255
255
255
255
255
255
255
255
255
255
255
255
255
255
255
255
255
255
255
255
255
255
255
255
255
255
255
255
255
255
255
255
255
255
255
255
255
255
255
255
255
255
255
255
255
255
255
255
255
255
255
255
255
255
255
255
255
255
255
255
255
255
255
255
255
255
255
255
255
255
255
255
255
255
255
255
255
255
255
255
255
255
255
255
255
255
255
255
255
255
255
255
255
255
255
255
255
255
255
255
255
255
255
255
255
255
255
255
255
255
255
255
255
255
255
255
255
255
255
255
255
255
255
255
255
255
255
255
255
255
255
255
255
255
255
255
255
255
255
255
255
255
245
230
230
255
245
230
255
255
255
255
255
255
255
255
255
255
255
255
255
255
255
255
255
255
255
255
255
255
255
255
255
255
255
255
255
255
255
236
204
255
255
255
255
255
255
255
255
255
245
212
204
199
154
133
97
155
199
206
255
255
255
255
255
255
255
255
255
255
255
255
255
255
255
255
255
255
255
255
255
255
245
230
221
171
105
81
96
114
114
99
137
230
255
255
255
255
255
221
171
199
127
110
76
84
100
146
154
206
255
255
255
255
255
255
255
255
255
255
255
255
255
255
255
255
255
255
255
255
206
212
131
129
84
72
55
73
86
22
108
165
166
230
255
255
255
255
255
212
129
82
124
136
73
67
73
97
199
204
245
245
245
255
255
255
255
255
255
255
255
255
255
255
255
255
255
255
255
212
138
84
55
50
65
25
39
102
55
29
59
138
100
230
255
255
255
255
255
206
118
165
89
89
101
120
69
73
65
137
172
164
184
255
255
255
255
255
255
255
255
255
255
255
255
255
255
255
245
159
76
26
32
63
34
47
130
119
155
191
221
102
47
126
230
250
255
255
245
109
96
196
148
191
142
133
132
122
123
199
207
148
180
255
255
255
255
255
255
255
255
255
255
255
255
255
255
255
119
75
6
5
57
58
99
166
220
245
255
255
255
185
65
126
186
235
255
255
125
80
165
255
255
245
245
255
255
255
255
255
255
206
171
192
255
255
255
255
255
255
255
255
255
255
255
255
255
107
59
31
23
79
83
149
179
255
255
255
255
255
255
255
199
171
255
255
255
143
62
126
255
255
255
255
255
255
255
255
255
255
255
206
99
159
255
255
255
255
255
255
255
255
255
255
255
255
255
57
80
43
59
165
114
236
255
255
255
255
255
255
255
255
255
255
255
212
236
103
97
172
255
255
255
255
255
255
255
255
255
245
176
191
75
173
255
255
255
255
255
255
255
255
255
255
255
255
153
66
70
17
86
73
132
212
255
255
255
255
255
255
255
255
255
255
255
165
172
107
115
245
255
255
255
255
255
255
255
255
255
227
101
148
86
185
255
255
255
255
255
255
255
255
255
255
255
171
176
65
65
11
30
119
158
221
255
255
255
255
255
255
255
255
255
255
221
183
153
110
133
245
255
255
255
255
255
255
255
255
255
165
83
132
86
144
255
255
255
255
255
255
255
255
255
255
245
191
213
87
40
34
25
120
156
255
255
255
255
255
255
255
255
255
255
255
206
127
197
56
144
255
255
255
255
255
255
255
255
255
255
165
74
111
81
123
255
255
255
255
255
255
255
255
255
255
230
230
159
86
58
42
28
157
200
255
255
255
255
255
255
255
255
255
255
255
142
138
144
48
164
255
255
255
255
255
255
255
255
255
255
142
66
87
72
140
255
255
255
255
255
255
255
255
255
255
212
196
183
152
68
47
34
118
212
255
255
255
255
255
255
255
255
255
255
245
128
199
136
52
221
255
255
255
255
255
255
255
255
255
255
127
77
63
79
140
255
255
255
255
255
255
255
255
255
255
212
227
212
196
77
83
25
39
221
255
255
255
255
255
255
255
255
255
255
230
230
205
96
79
207
255
195
195
212
148
87
57
66
132
148
100
75
58
67
148
255
255
255
255
255
255
255
255
255
255
255
255
255
204
127
100
27
16
133
158
255
255
255
255
255
255
255
255
255
255
255
221
103
154
160
206
241
241
192
147
62
33
26
81
134
85
53
25
61
140
255
255
255
255
255
255
255
255
255
255
255
255
255
255
134
102
54
3
48
144
186
255
255
255
255
255
255
255
255
255
255
236
122
167
139
212
255
199
161
255
191
245
143
102
98
50
32
6
13
130
255
255
255
255
255
255
255
255
255
255
255
255
255
255
159
131
56
4
5
79
128
221
255
255
255
255
255
255
255
255
255
245
137
179
167
179
221
142
221
171
206
120
157
69
51
31
27
3
2
119
255
255
255
255
255
255
255
255
255
255
255
255
255
255
212
191
84
44
4
35
101
148
255
255
255
255
255
255
255
255
255
255
212
221
162
95
98
179
158
173
123
132
46
95
62
42
11
3
4
123
255
255
255
255
255
255
255
255
255
255
255
255
255
255
255
236
96
86
16
32
60
129
206
255
255
255
230
212
220
255
255
255
255
230
127
29
62
49
158
117
146
57
97
142
86
37
8
4
6
132
255
255
255
255
255
255
255
255
255
255
255
255
255
255
255
245
171
150
30
33
68
51
115
204
191
111
155
133
138
245
255
255
255
206
81
72
120
113
136
118
105
94
105
142
72
29
14
2
14
127
255
255
255
255
255
255
255
255
255
255
255
255
255
255
255
255
255
212
80
61
41
19
51
50
18
49
72
86
123
255
255
255
255
230
192
204
206
153
131
117
138
115
145
191
120
14
15
2
13
157
255
255
255
255
255
255
255
255
255
255
255
255
255
255
255
255
255
230
114
81
47
15
18
21
51
64
59
56
171
255
255
255
255
255
255
255
255
255
245
221
199
230
245
255
105
28
14
8
14
170
255
255
255
255
255
255
255
255
255
255
255
255
255
255
255
255
255
245
191
143
75
82
138
84
101
29
6
113
245
255
255
255
255
255
255
255
255
255
255
255
255
255
255
255
86
49
15
8
17
172
255
255
255
255
255
255
255
255
255
255
255
255
255
255
255
255
255
255
230
221
185
96
80
102
14
10
129
255
255
255
255
255
255
255
255
255
255
255
255
255
255
255
255
245
77
48
11
12
38
213
255
255
255
255
255
255
255
255
255
255
255
255
255
255
255
255
255
255
255
212
230
213
90
37
98
245
255
255
255
255
255
255
255
255
255
255
255
255
255
255
255
255
255
245
105
55
18
14
90
230
230
255
255
255
255
255
255
255
255
255
255
255
255
255
255
255
255
255
255
255
230
176
137
177
206
230
255
255
255
255
255
255
255
212
245
255
255
255
255
255
255
255
255
221
136
65
24
3
102
142
192
255
255
255
255
255
255
255
255
255
255
255
255
255
255
255
255
255
255
255
255
255
255
255
200
255
255
255
255
255
255
255
137
191
171
245
255
255
255
255
255
191
221
221
114
61
23
5
54
99
206
255
255
255
255
255
255
255
255
255
255
255
255
255
255
255
255
255
255
255
255
255
255
255
255
255
255
255
255
255
255
255
98
138
142
236
255
255
255
255
221
133
230
221
122
78
27
4
66
173
255
255
255
255
255
255
255
255
255
255
255
255
255
255
255
255
255
255
255
255
255
255
255
255
255
255
255
255
255
255
255
230
111
119
130
236
255
255
255
255
143
143
255
196
140
97
13
23
114
245
255
255
255
255
255
255
255
255
255
255
255
255
255
255
255
255
255
255
255
255
255
255
255
255
255
255
255
255
255
255
255
236
108
90
115
245
255
255
255
199
122
183
255
160
89
14
18
52
167
255
255
255
255
255
255
255
255
255
255
255
255
255
255
255
255
255
255
255
255
255
255
255
255
255
255
255
255
255
255
255
255
221
88
77
72
197
200
255
245
143
119
206
205
99
31
1
22
55
230
255
255
255
255
255
255
255
255
255
255
255
255
255
255
255
255
255
255
255
255
255
255
255
255
255
255
255
255
255
255
255
255
206
78
66
51
102
191
221
206
150
144
255
113
34
0
3
25
148
255
255
255
255
255
255
255
255
255
255
255
255
255
255
255
255
255
255
255
255
255
255
255
255
255
255
255
255
255
255
255
255
245
196
84
56
61
95
171
191
152
71
131
70
2
1
1
14
84
245
255
255
255
255
255
255
255
255
255
255
255
255
255
255
255
255
255
255
255
255
255
255
255
255
255
255
255
255
255
255
255
255
255
176
82
69
46
29
23
21
12
2
5
0
1
18
6
62
213
245
255
255
255
255
255
255
255
255
255
255
255
255
255
255
255
255
255
255
255
255
255
255
255
255
255
255
255
255
255
255
255
255
255
245
109
43
17
15
41
5
3
4
11
10
15
7
14
79
115
212
255
255
255
255
255
255
255
255
255
255
255
255
255
255
255
255
255
255
255
255
255
255
255
255
255
255
255
255
255
255
255
255
255
255
205
19
8
1
14
2
5
16
36
9
1
6
10
122
230
255
255
255
255
255
255
255
255
255
255
255
255
255
255
255
255
255
255
255
255
255
255
255
255
255
255
255
255
255
255
255
255
255
255
255
212
37
65
42
32
13
23
35
12
1
23
78
191
255
255
255
255
255
255
255
255
255
255
255
255
255
255
255
255
255
255
255
255
255
255
255
255
255
255
255
255
255
255
255
255
255
255
255
255
255
255
199
93
46
55
54
83
46
13
51
227
212
255
255
255
255
255
255
255
255
255
255
255
255
255
255
255
255
255
255
255
255
255
255
255
255
255
255
255
255
255
255
255
255
255
255
255
255
255
255
255
255
199
84
89
96
68
75
138
161
255
255
255
255
255
255
255
255
255
255
255
255
255
255
255
255
255
255
255
255
255
255
255
255
255
255
255
255
255
255
255
255
255
255
255
255
255
255
255
255
255
255
255
179
178
154
148
245
255
255
255
255
255
255
255
255
255
255
255
255
255
255
255
255
255
255
255
255
255
255
255
255
255
255
255
255
255
255
255
255
255
255
255
255
255
255
255
255
255
255
255
255
255
255
212
245
255
255
255
255
255
255
255
255
255
255
255
255
255
255
255
255
255
255
255
255
255
